<mxfile host="app.diagrams.net" modified="2021-05-18T04:53:07.134Z" agent="5.0 (Windows NT 10.0; Win64; x64) AppleWebKit/537.36 (KHTML, like Gecko) Chrome/90.0.4430.212 Safari/537.36 Edg/90.0.818.62" etag="337u8zkbbcbWxEoIyKik" version="14.6.13" type="github">
  <diagram id="C7xWgJ8_gKyOvTi_osLO" name="Page-1">
    <mxGraphModel dx="1730" dy="967" grid="1" gridSize="10" guides="1" tooltips="1" connect="1" arrows="1" fold="1" page="1" pageScale="1" pageWidth="827" pageHeight="1169" math="0" shadow="0">
      <root>
        <mxCell id="0" />
        <mxCell id="1" parent="0" />
        <mxCell id="KCZqKtCepHYpzSYHCUhX-7" style="edgeStyle=orthogonalEdgeStyle;rounded=0;orthogonalLoop=1;jettySize=auto;html=1;exitX=0.5;exitY=1;exitDx=0;exitDy=0;entryX=0.5;entryY=0;entryDx=0;entryDy=0;" edge="1" parent="1" source="KCZqKtCepHYpzSYHCUhX-3" target="KCZqKtCepHYpzSYHCUhX-4">
          <mxGeometry relative="1" as="geometry" />
        </mxCell>
        <mxCell id="KCZqKtCepHYpzSYHCUhX-3" value="&lt;font style=&quot;font-size: 15px&quot;&gt;开始&lt;/font&gt;" style="rounded=1;whiteSpace=wrap;html=1;" vertex="1" parent="1">
          <mxGeometry x="360" y="120" width="120" height="60" as="geometry" />
        </mxCell>
        <mxCell id="KCZqKtCepHYpzSYHCUhX-8" style="edgeStyle=orthogonalEdgeStyle;rounded=0;orthogonalLoop=1;jettySize=auto;html=1;exitX=0.5;exitY=1;exitDx=0;exitDy=0;entryX=0.5;entryY=0;entryDx=0;entryDy=0;" edge="1" parent="1" source="KCZqKtCepHYpzSYHCUhX-4" target="KCZqKtCepHYpzSYHCUhX-6">
          <mxGeometry relative="1" as="geometry" />
        </mxCell>
        <mxCell id="KCZqKtCepHYpzSYHCUhX-4" value="&lt;font style=&quot;font-size: 15px&quot;&gt;初始化&lt;/font&gt;" style="rounded=0;whiteSpace=wrap;html=1;" vertex="1" parent="1">
          <mxGeometry x="360" y="210" width="120" height="60" as="geometry" />
        </mxCell>
        <mxCell id="KCZqKtCepHYpzSYHCUhX-13" style="edgeStyle=orthogonalEdgeStyle;rounded=0;orthogonalLoop=1;jettySize=auto;html=1;exitX=0.5;exitY=1;exitDx=0;exitDy=0;entryX=0.5;entryY=0;entryDx=0;entryDy=0;" edge="1" parent="1" source="KCZqKtCepHYpzSYHCUhX-6" target="KCZqKtCepHYpzSYHCUhX-11">
          <mxGeometry relative="1" as="geometry" />
        </mxCell>
        <mxCell id="KCZqKtCepHYpzSYHCUhX-17" style="edgeStyle=orthogonalEdgeStyle;rounded=0;orthogonalLoop=1;jettySize=auto;html=1;exitX=0.5;exitY=1;exitDx=0;exitDy=0;entryX=0.5;entryY=0;entryDx=0;entryDy=0;" edge="1" parent="1" source="KCZqKtCepHYpzSYHCUhX-6" target="KCZqKtCepHYpzSYHCUhX-10">
          <mxGeometry relative="1" as="geometry" />
        </mxCell>
        <mxCell id="KCZqKtCepHYpzSYHCUhX-19" style="edgeStyle=orthogonalEdgeStyle;rounded=0;orthogonalLoop=1;jettySize=auto;html=1;exitX=0.5;exitY=1;exitDx=0;exitDy=0;entryX=0.5;entryY=0;entryDx=0;entryDy=0;" edge="1" parent="1" source="KCZqKtCepHYpzSYHCUhX-6" target="KCZqKtCepHYpzSYHCUhX-12">
          <mxGeometry relative="1" as="geometry" />
        </mxCell>
        <mxCell id="KCZqKtCepHYpzSYHCUhX-6" value="&lt;font style=&quot;font-size: 15px&quot;&gt;分析指令&lt;/font&gt;" style="rhombus;whiteSpace=wrap;html=1;" vertex="1" parent="1">
          <mxGeometry x="360" y="310" width="120" height="80" as="geometry" />
        </mxCell>
        <mxCell id="KCZqKtCepHYpzSYHCUhX-22" style="edgeStyle=orthogonalEdgeStyle;rounded=0;orthogonalLoop=1;jettySize=auto;html=1;exitX=0.5;exitY=1;exitDx=0;exitDy=0;" edge="1" parent="1" source="KCZqKtCepHYpzSYHCUhX-10" target="KCZqKtCepHYpzSYHCUhX-21">
          <mxGeometry relative="1" as="geometry" />
        </mxCell>
        <mxCell id="KCZqKtCepHYpzSYHCUhX-10" value="&lt;font style=&quot;font-size: 15px&quot;&gt;打开窗帘&lt;/font&gt;" style="rounded=0;whiteSpace=wrap;html=1;" vertex="1" parent="1">
          <mxGeometry x="200" y="440" width="120" height="60" as="geometry" />
        </mxCell>
        <mxCell id="KCZqKtCepHYpzSYHCUhX-23" style="edgeStyle=orthogonalEdgeStyle;rounded=0;orthogonalLoop=1;jettySize=auto;html=1;exitX=0.5;exitY=1;exitDx=0;exitDy=0;" edge="1" parent="1" source="KCZqKtCepHYpzSYHCUhX-11">
          <mxGeometry relative="1" as="geometry">
            <mxPoint x="420.17647058823536" y="560" as="targetPoint" />
          </mxGeometry>
        </mxCell>
        <mxCell id="KCZqKtCepHYpzSYHCUhX-11" value="&lt;font style=&quot;font-size: 15px&quot;&gt;保持窗帘状态&lt;/font&gt;" style="rounded=0;whiteSpace=wrap;html=1;" vertex="1" parent="1">
          <mxGeometry x="360" y="440" width="120" height="60" as="geometry" />
        </mxCell>
        <mxCell id="KCZqKtCepHYpzSYHCUhX-24" style="edgeStyle=orthogonalEdgeStyle;rounded=0;orthogonalLoop=1;jettySize=auto;html=1;exitX=0.5;exitY=1;exitDx=0;exitDy=0;" edge="1" parent="1" source="KCZqKtCepHYpzSYHCUhX-12">
          <mxGeometry relative="1" as="geometry">
            <mxPoint x="420" y="560" as="targetPoint" />
          </mxGeometry>
        </mxCell>
        <mxCell id="KCZqKtCepHYpzSYHCUhX-12" value="&lt;font style=&quot;font-size: 15px&quot;&gt;关闭窗帘&lt;/font&gt;" style="rounded=0;whiteSpace=wrap;html=1;" vertex="1" parent="1">
          <mxGeometry x="520" y="440" width="120" height="60" as="geometry" />
        </mxCell>
        <mxCell id="KCZqKtCepHYpzSYHCUhX-21" value="&lt;font style=&quot;font-size: 15px&quot;&gt;结束&lt;/font&gt;" style="rounded=1;whiteSpace=wrap;html=1;" vertex="1" parent="1">
          <mxGeometry x="360" y="560" width="120" height="60" as="geometry" />
        </mxCell>
      </root>
    </mxGraphModel>
  </diagram>
</mxfile>
